<svg version="1.1" id="Layer_1" xmlns="http://www.w3.org/2000/svg" xmlns:xlink="http://www.w3.org/1999/xlink" x="0px" y="0px"
	 width="2000px" height="1406px" viewBox="0 0 2000 1406" style="enable-background:new 0 0 2000 1406;" xml:space="preserve">
<style type="text/css">
	.st0{fill:#FFFFFF;}
</style>
<g>
	<path class="st0" d="M47.8,533.5c0,0,163.2-70.7,437.6,14.6c246.9,76.8,566.2,298.9,1000.2,814.1c0,0-125.8-310.5-303.9-579.6
		C1024.4,544.8,601.4,56.2,47.8,533.5z"/>
	<path class="st0" d="M1809.2,57.7C1704.8,45.1,1480.5,44,1480.5,44s-358.7-0.4-630.3,0.3c-233.3,0.6-487.3,114.7-476.7,115.1
		c712.9,32.2,936.7,641.2,936.7,630.6V412.4c0-5.6-4.6-10.2-10.2-10.2h-146.7c-5.6,0-10.2-4.6-10.2-10.2v-88.8
		c0-5.6,4.6-10.2,10.2-10.2H1300c5.6,0,10.2-4.6,10.2-10.2V141c0-5.6,4.6-10.2,10.2-10.2h87c5.6,0,10.2,4.6,10.2,10.2v141.9
		c0,5.6,4.6,10.2,10.2,10.2h147.9c5.6,0,10.2,4.6,10.2,10.2V392c0,5.6-4.6,10.2-10.2,10.2h-147.8c-5.6,0-10.2,4.6-10.2,10.2
		l0.6,568.7c0,0.3,0,0.6,0,0.9c8.6,102.3,64.6,154.4,70.2,159.4c0.3,0.3,0.6,0.5,1,0.8c6,4.2,65.7,42.3,150.4-5.7
		c89.5-50.7,155.7-315.6,155.7-315.6L1947,206c0.1-0.2,0.1-0.5,0.2-0.8C1970.2,69.6,1913.6,70.2,1809.2,57.7z"/>
</g>
</svg>
